<?xml version="1.0" encoding="utf-8"?>
<!-- Generator: Adobe Illustrator 24.1.1, SVG Export Plug-In . SVG Version: 6.00 Build 0)  -->
<svg version="1.1" id="Layer_1" xmlns="http://www.w3.org/2000/svg" xmlns:xlink="http://www.w3.org/1999/xlink" x="0px" y="0px"
	 viewBox="0 0 512 512" style="enable-background:new 0 0 512 512;" xml:space="preserve">
<style type="text/css">
	.st0{fill:#231F20;}
</style>
<g>
	<path class="st0" d="M256,512c141.4,0,256-114.6,256-256S397.4,0,256,0S0,114.6,0,256S114.6,512,256,512z M161.5,208.4l76.8-73.2
		l3.8-2.6l4.1-2.6c6.2-2.7,13.3-2.7,19.5,0c3.1,1.2,6,3,8.4,5.4l76.8,76.8c10,10,10,26.3,0,36.3s-26.3,10-36.4,0l-33-33.3v143.1
		c0,14.1-11.5,25.6-25.6,25.6c-14.1,0-25.6-11.5-25.6-25.6V213.5l-33.5,32c-10.3,9.8-26.5,9.4-36.2-0.9
		C150.9,234.4,151.3,218.1,161.5,208.4z"/>
</g>
</svg>
